<svg xmlns="http://www.w3.org/2000/svg" width="115.386" height="61.823" viewBox="0 0 115.386 61.823">
    <defs>
        <linearGradient id="linear-gradient" x1=".224" x2=".945" y1=".5" y2="1" gradientUnits="objectBoundingBox">
            <stop offset="0" stop-color="#48a9fe"/>
            <stop offset="1" stop-color="#0beef9"/>
        </linearGradient>
    </defs>
    <path id="Path_26" fill="url(#linear-gradient)" d="M28.635-172.342c11.043 0 18.26-5.652 18.26-14.521 0-9.826-8.608-12.434-16.347-14.434-6.087-1.652-7.913-2.348-7.913-4.782 0-1.565 2.174-2.7 5.3-2.7a25.444 25.444 0 0 1 12.608 4l5.13-9.043a32.71 32.71 0 0 0-17.738-5.565c-10.608 0-17.651 6.087-17.564 14.608.087 8.869 7.217 11.391 16.434 13.652 4.608 1.217 7.913 2.087 7.913 4.869 0 2-2.435 3.391-5.826 3.391a25.577 25.577 0 0 1-15.043-5.043l-5.478 8.782a33.234 33.234 0 0 0 20.264 6.786zm52.78-47.041a16.406 16.406 0 0 0-13.478 6.521v-21.3h-12.7v60.78h12.7v-26.607c0-4.869 4.087-8.7 9.391-8.7 5.043 0 8.521 3.826 8.521 9.391v25.912H98.11v-28.607c0-10.173-6.956-17.39-16.695-17.39zm34.607 47.041a7.947 7.947 0 0 0 7.739-8.087 7.871 7.871 0 0 0-7.739-7.739 8.005 8.005 0 0 0-8.087 7.739 8.071 8.071 0 0 0 8.087 8.087z" data-name="Path 26" transform="translate(-8.375 234.165)"/>
</svg>
